<svg xmlns="http://www.w3.org/2000/svg" viewBox="0 0 96 66"><defs><style>.cls-1{fill:#d2d4d6;}.cls-1,.cls-2{stroke:#0a3249;stroke-linecap:round;stroke-linejoin:round;}.cls-2{fill:#f2f1f0;}</style></defs><title>_D</title><g id="Layer_2" data-name="Layer 2"><g id="Layer_1-2" data-name="Layer 1"><rect class="cls-1" x="50.5" y="30.5" width="45" height="35" rx="2.5" ry="2.5" transform="translate(146 96) rotate(-180)"/><rect class="cls-2" x="50.5" y="30.5" width="45" height="26.25" rx="2.5" ry="2.5" transform="translate(146 87.25) rotate(180)"/><rect class="cls-1" x="60.5" y="30.5" width="25" height="20" rx="2.5" ry="2.5" transform="translate(146 81) rotate(-180)"/><rect class="cls-2" x="60.5" y="30.5" width="25" height="15" rx="2.5" ry="2.5" transform="translate(146 76) rotate(180)"/><path class="cls-1" d="M3,25.5H63A2.5,2.5,0,0,1,65.5,28v7.5a0,0,0,0,1,0,0H3A2.5,2.5,0,0,1,.5,33V28A2.5,2.5,0,0,1,3,25.5Z" transform="translate(66 61) rotate(180)"/><path class="cls-2" d="M3,20.5H65.5a0,0,0,0,1,0,0V23A2.5,2.5,0,0,1,63,25.5H3A2.5,2.5,0,0,1,.5,23v0A2.5,2.5,0,0,1,3,20.5Z" transform="translate(66 46) rotate(-180)"/><rect class="cls-1" x="63" y="5.5" width="20" height="35" rx="2.5" ry="2.5" transform="translate(146 46) rotate(-180)"/><rect class="cls-1" x="60.5" y="0.5" width="25" height="20" rx="2.5" ry="2.5" transform="translate(146 21) rotate(-180)"/><rect class="cls-2" x="60.5" y="0.5" width="25" height="15" rx="2.5" ry="2.5" transform="translate(146 16) rotate(180)"/></g></g></svg>