<svg xmlns="http://www.w3.org/2000/svg" viewBox="0 0 190.5 120.5"><defs><style>.cls-1{isolation:isolate;}.cls-2{fill:#f2f1f0;}.cls-2,.cls-4{stroke:#0a3249;stroke-linecap:round;stroke-linejoin:round;}.cls-3{fill:#0a3249;}.cls-4{fill:none;}.cls-5{fill:#f58238;opacity:0.4;mix-blend-mode:multiply;}</style></defs><title>_F&amp;amp;P</title><g class="cls-1"><g id="Layer_2" data-name="Layer 2"><g id="I_F_P" data-name="I_F&amp;P"><rect class="cls-2" x="110.5" y="20.5" width="60" height="90" transform="translate(281 131) rotate(180)"/><rect class="cls-2" x="50.5" y="60.5" width="60" height="50" transform="translate(161 171) rotate(180)"/><rect class="cls-2" x="130.5" y="80.5" width="20" height="30" transform="translate(281 191) rotate(180)"/><rect class="cls-2" x="60.5" y="100.5" width="40" height="10" transform="translate(161 211) rotate(180)"/><rect class="cls-2" x="60.5" y="90.5" width="40" height="10" transform="translate(161 191) rotate(180)"/><rect class="cls-2" x="60.5" y="80.5" width="40" height="10" transform="translate(161 171) rotate(180)"/><polygon class="cls-2" points="158.5 95.5 162.5 95.5 165.5 85.5 155.5 85.5 158.5 95.5"/><polygon class="cls-2" points="118.5 95.5 122.5 95.5 125.5 85.5 115.5 85.5 118.5 95.5"/><polygon class="cls-2" points="40.5 60.5 110.5 60.5 110.5 50.5 90.5 40.5 40.5 60.5"/><polygon class="cls-2" points="110.5 20.5 180.5 20.5 110.5 0.5 110.5 20.5"/><rect class="cls-2" x="113.83" y="32.17" width="20" height="16.67" transform="translate(83.33 164.33) rotate(-90)"/><rect class="cls-2" x="130.5" y="32.17" width="20" height="16.67" transform="translate(100 181) rotate(-90)"/><rect class="cls-2" x="147.16" y="32.17" width="20" height="16.67" transform="translate(116.66 197.66) rotate(-90)"/><rect class="cls-2" x="0.5" y="112" width="5" height="2" transform="translate(6 226) rotate(180)"/><polygon class="cls-2" points="20.5 100.5 25.5 90.5 40.5 90.5 50.5 100.5 57.5 100.5 57.5 115.5 5.5 115.5 5.5 100.5 20.5 100.5"/><rect class="cls-3" x="40.5" y="110.5" width="10" height="10" rx="5" ry="5" transform="translate(91 231) rotate(-180)"/><rect class="cls-3" x="15.5" y="110.5" width="10" height="10" rx="5" ry="5" transform="translate(41 231) rotate(-180)"/><polygon class="cls-4" points="35.5 100.5 45.5 100.5 38.83 93.83 35.5 93.83 35.5 100.5"/><polygon class="cls-4" points="23.83 100.5 30.5 100.5 30.5 93.83 27.17 93.83 23.83 100.5"/><path class="cls-2" d="M5.5,103.5h4a1,1,0,0,1,1,1v0a1,1,0,0,1-1,1h-4a0,0,0,0,1,0,0v-2A0,0,0,0,1,5.5,103.5Z"/><rect class="cls-2" x="51.5" y="102.5" width="4" height="4" rx="2" ry="2" transform="translate(107 209) rotate(-180)"/><line class="cls-4" x1="32.5" y1="90.5" x2="32.5" y2="115.5"/><line class="cls-4" x1="38.13" y1="104.5" x2="36.13" y2="104.5"/><line class="cls-4" x1="26.17" y1="104.5" x2="24.17" y2="104.5"/><polygon class="cls-5" points="120.5 0.5 120.5 20.5 120.5 50.5 100.5 40.5 50.5 60.5 60.5 60.5 60.5 110.5 70.5 110.5 110.5 110.5 120.5 110.5 140.5 110.5 160.5 110.5 180.5 110.5 180.5 20.5 190.5 20.5 120.5 0.5"/><path class="cls-5" d="M63.5,100.5l-10-10h-15l-5,10h-15V112h-5v2h5v1.5h10a5,5,0,0,0,10,0h15a5,5,0,0,0,10,0h7v-15Z"/></g></g></g></svg>