<svg xmlns="http://www.w3.org/2000/svg" viewBox="0 0 150.5 171"><defs><style>.cls-1{isolation:isolate;}.cls-2,.cls-5{fill:#f2f1f0;}.cls-2,.cls-3,.cls-4,.cls-5{stroke:#0a3249;stroke-linecap:round;stroke-linejoin:round;}.cls-3{fill:none;}.cls-4{fill:#0a3249;}.cls-5{stroke-width:5px;}.cls-6{fill:#f58238;opacity:0.4;mix-blend-mode:multiply;}</style></defs><title>_G&amp;amp;D</title><g class="cls-1"><g id="Layer_2" data-name="Layer 2"><g id="I_G"><path class="cls-2" d="M40.5,70.5h20a40,40,0,0,1,40,40v60a0,0,0,0,1,0,0H.5a0,0,0,0,1,0,0v-60a40,40,0,0,1,40-40Z"/><polyline class="cls-2" points="40.5 70.5 50.5 100.5 40.5 90.5 20.5 100.5 30.5 70.5"/><polyline class="cls-2" points="60.5 70.5 50.5 100.5 60.5 90.5 80.5 100.5 70.5 70.5"/><line class="cls-3" x1="50.5" y1="170.5" x2="50.5" y2="100.5"/><polygon class="cls-4" points="60.5 90.5 40.5 90.5 48 102.23 40.5 137.41 50.5 153.04 60.5 137.41 53 102.23 60.5 90.5"/><line class="cls-3" x1="60.5" y1="110.5" x2="80.5" y2="110.5"/><line class="cls-3" x1="55.5" y1="165.5" x2="55.5" y2="165.5"/><line class="cls-3" x1="55.5" y1="155.5" x2="55.5" y2="155.5"/><line class="cls-3" x1="10.5" y1="170.5" x2="10.5" y2="120.5"/><rect class="cls-4" x="15.5" y="0.5" width="70" height="60" rx="30" ry="30"/><rect class="cls-2" x="20.5" y="0.5" width="60" height="80" rx="30" ry="30"/><path class="cls-5" d="M35.5,40.5h0m30,0h0"/><path class="cls-3" d="M55.5,54.46c0,2.76-10,2.76-10,0"/><path class="cls-3" d="M62.5,33,65,30.5h0L67.5,33m-30,0L35,30.5h0L32.5,33"/><path class="cls-4" d="M50.5.5h10a20,20,0,0,1,20,20v10a0,0,0,0,1,0,0h-10a20,20,0,0,1-20-20V.5a0,0,0,0,1,0,0Z"/><path class="cls-4" d="M40.5.5h10a0,0,0,0,1,0,0v10a20,20,0,0,1-20,20h-10a0,0,0,0,1,0,0v-10A20,20,0,0,1,40.5.5Z" transform="translate(71 31) rotate(-180)"/><path class="cls-3" d="M58,43H43M28,43H13m75,0H73M35.5,35.5A7.5,7.5,0,1,0,43,43,7.5,7.5,0,0,0,35.5,35.5Zm30,0A7.5,7.5,0,1,0,73,43,7.5,7.5,0,0,0,65.5,35.5Z"/><path class="cls-6" d="M81.4,72A29.9,29.9,0,0,0,90.5,50.5v-20a30,30,0,0,0-30-30h0a30,30,0,0,0-30,30v20A29.9,29.9,0,0,0,39.6,72,40,40,0,0,0,10.5,110.5v60h100v-60A40,40,0,0,0,81.4,72Z"/><path class="cls-2" d="M110.5,90.5h0a30,30,0,0,1,30,30v50a0,0,0,0,1,0,0h-60a0,0,0,0,1,0,0v-50A30,30,0,0,1,110.5,90.5Z"/><line class="cls-3" x1="90.5" y1="120.5" x2="90.5" y2="170.5"/><line class="cls-3" x1="130.5" y1="120.5" x2="130.5" y2="170.5"/><path class="cls-2" d="M100.5,90.5h20a0,0,0,0,1,0,0v10a10,10,0,0,1-10,10h0a10,10,0,0,1-10-10v-10a0,0,0,0,1,0,0Z"/><rect class="cls-4" x="85.5" y="39.17" width="50" height="50" rx="25" ry="25"/><rect class="cls-2" x="86.5" y="40.5" width="48" height="60" rx="24" ry="24"/><path class="cls-3" d="M115.5,80.5c0,2.76-10,2.76-10,0"/><path class="cls-3" d="M118,63a2.5,2.5,0,0,1,2.5-2.5h0A2.5,2.5,0,0,1,123,63m-20,0a2.5,2.5,0,0,0-2.5-2.5h0A2.5,2.5,0,0,0,98,63"/><path class="cls-5" d="M100.5,70.5h0m20,0h0"/><path class="cls-4" d="M107,40.5h10a0,0,0,0,1,0,0v4.42a20,20,0,0,1-20,20H87a0,0,0,0,1,0,0V60.5A20,20,0,0,1,107,40.5Z"/><path class="cls-4" d="M111.58,40.5h1.64a20,20,0,0,1,20,20v0a0,0,0,0,1,0,0h-1.64a20,20,0,0,1-20-20v0a0,0,0,0,1,0,0Z" transform="translate(244.81 101) rotate(180)"/><path class="cls-6" d="M136,94.81a23.94,23.94,0,0,0,8.5-18.31v-12a24,24,0,0,0-24-24h0a24,24,0,0,0-24,24v12A23.94,23.94,0,0,0,105,94.81,30,30,0,0,0,90.5,120.5v50h60v-50A30,30,0,0,0,136,94.81Z"/></g></g></g></svg>