<svg xmlns="http://www.w3.org/2000/svg" viewBox="0 0 121 76"><defs><style>.cls-1,.cls-4{fill:#f2f1f0;}.cls-2,.cls-6{fill:none;}.cls-2,.cls-3,.cls-4,.cls-5{stroke:#0a3249;}.cls-2,.cls-3,.cls-4,.cls-5,.cls-6{stroke-linecap:round;stroke-linejoin:round;}.cls-3{fill:#d2d4d6;}.cls-5{fill:#d1d3d5;}.cls-6{stroke:#f58238;}</style></defs><title>_ST</title><g id="Layer_2" data-name="Layer 2"><g id="Layer_1-2" data-name="Layer 1"><path class="cls-1" d="M91.4,44.5h-.85L90.75,42l1.54-2.11.26-2.67,3.1-.54.29-3.47,3,.31h2.37l2.19-.61v.63l2.75-2.86,2.65.79L111,33.21l.11,3.63,1.68,1.42,3.76.81-.73,3-1.25,2.46h1.11l-1.33,2.17-.53,2.13-1.3,1.77-1.15,1.86-1.26,2-2.42.28-2.18.13-2.07,1.92v-.85L100.82,58,99,55.28l-2.25-.73L94,54l0-3.14-1-2L90.91,47ZM103,49.88l-1.3-2.24L100.24,46l-2-1.56-.06,1m9.71,2.89L108.5,46l.62-2,.85-2.26-1.66-1.81.24-3.13"/><path class="cls-2" d="M91.4,44.5h-.85L90.75,42l1.54-2.11.26-2.67,3.1-.54.29-3.47,3,.31h2.37l2.19-.61v.63l2.75-2.86,2.65.79L111,33.21l.11,3.63,1.68,1.42,3.76.81-.73,3-1.25,2.46h1.11l-1.33,2.17-.53,2.13-1.3,1.77-1.15,1.86-1.26,2-2.42.28-2.18.13-2.07,1.92v-.85L100.82,58,99,55.28l-2.25-.73L94,54l0-3.14-1-2L90.91,47ZM103,49.88l-1.3-2.24L100.24,46l-2-1.56-.06,1m9.71,2.89L108.5,46l.62-2,.85-2.26-1.66-1.81.24-3.13"/><path class="cls-3" d="M80.5,10.5a10,10,0,0,1-10,10h40a10,10,0,0,0,0-20h-40A10,10,0,0,1,80.5,10.5Z"/><path class="cls-4" d="M100.5.5h-35a10,10,0,0,0-10,10v40a10,10,0,0,0,10,10h25a10,10,0,0,0,10-10v-40a10,10,0,0,1,10-10Z"/><line class="cls-2" x1="95.5" y1="10.5" x2="85.5" y2="10.5"/><line class="cls-2" x1="75.5" y1="15.5" x2="65.5" y2="15.5"/><line class="cls-2" x1="80.5" y1="15.5" x2="95.5" y2="15.5"/><line class="cls-2" x1="80.5" y1="20.5" x2="65.5" y2="20.5"/><line class="cls-2" x1="95.5" y1="25.5" x2="75.5" y2="25.5"/><line class="cls-2" x1="85.5" y1="30.5" x2="60.5" y2="30.5"/><line class="cls-2" x1="70.5" y1="25.5" x2="65.5" y2="25.5"/><line class="cls-2" x1="90.5" y1="35.5" x2="75.5" y2="35.5"/><line class="cls-2" x1="95.5" y1="30.5" x2="90.5" y2="30.5"/><line class="cls-2" x1="95.5" y1="20.5" x2="85.5" y2="20.5"/><line class="cls-2" x1="80.5" y1="40.5" x2="65.5" y2="40.5"/><line class="cls-2" x1="90.5" y1="40.5" x2="85.5" y2="40.5"/><line class="cls-2" x1="70.5" y1="5.5" x2="65.5" y2="5.5"/><line class="cls-2" x1="80.5" y1="45.5" x2="95.5" y2="45.5"/><line class="cls-2" x1="80.5" y1="50.5" x2="60.5" y2="50.5"/><line class="cls-2" x1="90.5" y1="5.5" x2="75.5" y2="5.5"/><line class="cls-2" x1="95.5" y1="50.5" x2="85.5" y2="50.5"/><line class="cls-2" x1="80.5" y1="10.5" x2="60.5" y2="10.5"/><path class="cls-5" d="M80.5,60.5h-35a10,10,0,0,1-10-10v-25a10,10,0,0,1,10-10h25a10,10,0,0,1,10,10v25a10,10,0,0,0,10,10Z"/><path class="cls-4" d="M60.5,15.5h-35a10,10,0,0,0-10,10v40a10,10,0,0,0,10,10h25a10,10,0,0,0,10-10v-40a10,10,0,0,1,10-10Z"/><path class="cls-6" d="M20.5,62.77c.93,0,6.45,0,6.67-1.36s-4.37-3.71-5.33-2.72,1.69,5.7,2.67,5.45-.68-5.52,1.33-6.81,8,2,8,5.45c0,1.41-.94,2.83-1.33,2.72-.94-.25.63-9.57,1.33-9.53.54,0-.4,5.56,2.67,8.17a6.38,6.38,0,0,0,4,1.36"/><path class="cls-2" d="M20.5,50.5h10m10-5h10m-15,0h-15m15-5h15m-30-5h20m-10-5h25m-10,5h5m-25-10h15m-20,5h5m-5,10h10m5-20h20m-30,0h5m15,40,5,5m0-5-5,5"/><path class="cls-5" d="M40.5,65.5H.5a10,10,0,0,0,10,10h40A10,10,0,0,1,40.5,65.5Z"/><rect class="cls-4" x="61.94" y="26.56" width="6.36" height="28.64" transform="translate(47.98 -34.08) rotate(45)"/><line class="cls-2" x1="77.5" y1="37.5" x2="68.5" y2="46.5"/><line class="cls-4" x1="75.25" y1="39.75" x2="68.5" y2="33"/><polygon class="cls-4" points="57.25 53.25 52.75 48.75 50.5 55.5 57.25 53.25"/></g></g></svg>