<?xml version="1.0" encoding="utf-8"?>
<!-- Generator: Adobe Illustrator 21.1.0, SVG Export Plug-In . SVG Version: 6.00 Build 0)  -->
<svg version="1.1" id="Layer_1" xmlns="http://www.w3.org/2000/svg" xmlns:xlink="http://www.w3.org/1999/xlink" x="0px" y="0px"
	 viewBox="0 0 210 155" style="enable-background:new 0 0 210 155;" xml:space="preserve">
<style type="text/css">
	.st0{clip-path:url(#SVGID_2_);fill:url(#SVGID_3_);}
	.st1{clip-path:url(#SVGID_2_);fill:url(#SVGID_4_);}
	.st2{clip-path:url(#SVGID_2_);fill:url(#SVGID_5_);}
	.st3{clip-path:url(#SVGID_2_);fill:url(#SVGID_6_);}
	.st4{clip-path:url(#SVGID_2_);fill:url(#SVGID_7_);}
	.st5{clip-path:url(#SVGID_2_);fill:none;stroke:#FBB180;stroke-linecap:round;stroke-linejoin:round;}
	.st6{clip-path:url(#SVGID_2_);fill:#542E25;}
	.st7{clip-path:url(#SVGID_2_);fill:none;stroke:#542E25;stroke-linecap:round;stroke-linejoin:round;}
	.st8{clip-path:url(#SVGID_2_);fill:url(#SVGID_8_);}
	.st9{clip-path:url(#SVGID_2_);fill:#C65724;}
	.st10{clip-path:url(#SVGID_2_);fill:url(#SVGID_9_);}
	.st11{clip-path:url(#SVGID_2_);fill:#FFDCB0;stroke:#FBB180;stroke-miterlimit:10;}
	.st12{clip-path:url(#SVGID_2_);fill:#FBB180;}
	.st13{clip-path:url(#SVGID_2_);fill:none;stroke:#DD9D80;stroke-linecap:round;stroke-linejoin:round;}
</style>
<title>Asset 1</title>
<g>
	<defs>
		<rect id="SVGID_1_" width="210" height="155"/>
	</defs>
	<clipPath id="SVGID_2_">
		<use xlink:href="#SVGID_1_"  style="overflow:visible;"/>
	</clipPath>
	<linearGradient id="SVGID_3_" gradientUnits="userSpaceOnUse" x1="150.81" y1="70.1733" x2="150.81" y2="139.0003">
		<stop  offset="0" style="stop-color:#C65724"/>
		<stop  offset="1" style="stop-color:#542E25"/>
	</linearGradient>
	<path class="st0" d="M149,25.8h3.6c15.3,0,27.6,12.4,27.6,27.6v56.8c0,15.3-12.4,27.6-27.6,27.6H149c-15.3,0-27.6-12.4-27.6-27.6
		V53.5C121.4,38.2,133.8,25.8,149,25.8z"/>
	
		<linearGradient id="SVGID_4_" gradientUnits="userSpaceOnUse" x1="145.1219" y1="107.2796" x2="145.1219" y2="-6.5765" gradientTransform="matrix(1 -6.000000e-02 -6.000000e-02 -1.08 9.25 218.35)">
		<stop  offset="0" style="stop-color:#41395E"/>
		<stop  offset="1" style="stop-color:#5854DC"/>
	</linearGradient>
	<path class="st1" d="M175,145.7c0.1-0.4,0.1-0.8,0.2-1.2l2.9-35.1c1-11.8-8-16.8-18.9-16.1l-7.9,0.5c-19.2,1.1-32.9,15.5-28.8,35.9
		l3.6,17.7c0,0.1,0.1,0.2,0.1,0.3l-4.7,47.1c-0.2,2,0.5,4.1,1.9,5.5l0,0c14.1,13.7,32.9,18.4,51.5,15l6.4-1.2
		c3.3-0.8,5.5-4.1,4.7-7.4L175,145.7z"/>
	
		<linearGradient id="SVGID_5_" gradientUnits="userSpaceOnUse" x1="34.6434" y1="58.3948" x2="29.3134" y2="47.5648" gradientTransform="matrix(1.26 -0.36 -0.29 -1.01 114.55 161.54)">
		<stop  offset="0" style="stop-color:#41395E"/>
		<stop  offset="1" style="stop-color:#5854DC"/>
	</linearGradient>
	<path class="st2" d="M145,92.5l0.3,5.6c0,1.2-0.9,2.2-2.1,2.4l-8.1,2.3c-2.5,0.7-4.3-1.6-2.6-3.4l7.7-7.9
		C141.9,89.9,144.9,90.5,145,92.5z"/>
	<linearGradient id="SVGID_6_" gradientUnits="userSpaceOnUse" x1="145.31" y1="69.4067" x2="145.31" y2="19.3286">
		<stop  offset="0" style="stop-color:#FFDCB0"/>
		<stop  offset="1" style="stop-color:#FBB180"/>
	</linearGradient>
	<path class="st3" d="M166.4,49.7l-0.2,30c0,2.6-4.9,7.5-7.5,7.5l0,0l0.1,13.3c0,4-3.1,7.2-7.1,7.2c0,0-0.1,0-0.1,0l0,0
		c-4,0-7.2-3.2-7.2-7.2v0V88.5h-3.9c-6.8,0-12.3-5.5-12.3-12.3v-1l0,0c-2.3,0-4.1-1.9-4.1-4.1c0-0.4,0.1-0.9,0.2-1.3l4.6-13.7v-6.4
		c0-10.4,8.4-18.7,18.8-18.7c0.1,0,0.2,0,0.3,0l0,0C158.2,31.2,166.4,39.5,166.4,49.7z"/>
	<linearGradient id="SVGID_7_" gradientUnits="userSpaceOnUse" x1="166.73" y1="104.8328" x2="166.73" y2="170.7272">
		<stop  offset="0" style="stop-color:#FFDCB0"/>
		<stop  offset="1" style="stop-color:#FBB180"/>
	</linearGradient>
	<path class="st4" d="M171.6,164.4l4.3-52.3c0.2-3.8-2.7-7-6.5-7.3c0,0,0,0,0,0l0,0c-3.8-0.3-7.1,2.5-7.5,6.3c0,0,0,0,0,0l-4.3,52.3
		c-0.2,3.8,2.7,7,6.5,7.3c0,0,0,0,0,0l0,0C167.9,171,171.2,168.2,171.6,164.4C171.6,164.4,171.6,164.4,171.6,164.4z"/>
	<path class="st5" d="M133.5,80.3L133.5,80.3c0,1-0.8,1.8-1.8,1.8l0,0h-2.3"/>
	<path class="st6" d="M135.8,62h0.3c1.2,0,2.2,1,2.2,2.2v2.2c0,1.2-1,2.2-2.2,2.2h-0.3c-1.2,0-2.2-1-2.2-2.2v-2.2
		C133.6,63,134.6,62,135.8,62z"/>
	<path class="st7" d="M133.1,59.7c1.4-0.9,3.2-0.9,4.7,0"/>
	
		<linearGradient id="SVGID_8_" gradientUnits="userSpaceOnUse" x1="167.8576" y1="105.6324" x2="157.4676" y2="84.5424" gradientTransform="matrix(0.95 -6.000000e-02 -6.000000e-02 -0.99 4.77 206.4)">
		<stop  offset="0" style="stop-color:#41395E"/>
		<stop  offset="1" style="stop-color:#5854DC"/>
	</linearGradient>
	<path class="st8" d="M165.9,100.1l-12.4,11.7c-1.6,1.5-4.2,1.4-5.7-0.2c-0.2-0.2-0.3-0.4-0.5-0.6l-5.1-8.4c-0.3-0.6,0-1.4,0.6-1.7
		l16.3-7.2c2.7-1.1,5.8,0.1,6.9,2.8c0.2,0.6,0.4,1.2,0.4,1.8v0.7C166.6,99.4,166.4,99.9,165.9,100.1z"/>
	<path class="st9" d="M150.7,26.8c0,0,1.2,19.1-6.7,26.2c-5.2,4.6-12,7.1-19,7c-0.8-6.6,0.6-13.3,4-19
		C136.1,29.2,148.9,27.1,150.7,26.8z"/>
	<path class="st9" d="M168.1,66.5L168.1,66.5c4.8-15.1,2.8-22.6-0.1-26.6c-5.5-7.7-20-11.3-20-11.3l0,0l0.9,16.6
		C149.5,56.4,157.7,65.5,168.1,66.5z"/>
	<linearGradient id="SVGID_9_" gradientUnits="userSpaceOnUse" x1="168.397" y1="65.6496" x2="168.397" y2="101.22">
		<stop  offset="0" style="stop-color:#C65724"/>
		<stop  offset="1" style="stop-color:#934524"/>
	</linearGradient>
	<path class="st10" d="M158.2,65.6h20.3l0,0v35.6l0,0h-1.2c-10.5,0-19.1-8.5-19.1-19.1v0L158.2,65.6L158.2,65.6z"/>
	<path class="st11" d="M153.5,66.5c0-2.2,1.8-4,4-4s4,1.8,4,4s-1.8,4-4,4"/>
	<circle class="st12" cx="157.5" cy="66.5" r="2"/>
	<path class="st13" d="M158,44c0,21,9.6,38,21.4,38 M163,39c0,11.4,7.6,20.5,17,20.5 M150.3,37.2c-0.7,5.7-2.4,12.2-6.3,15.8
		c-5.2,4.6-12,7.1-19,7"/>
</g>
</svg>
