<svg id="Layer_1" data-name="Layer 1" xmlns="http://www.w3.org/2000/svg" viewBox="0 0 122.18 30"><defs><style>.cls-1{fill:#515659;}</style></defs><title>SAT_txt</title><path class="cls-1" d="M65,6.94a1.38,1.38,0,0,0,.94-.3,1.11,1.11,0,0,0,.34-.89A1.18,1.18,0,0,0,66,5a1.61,1.61,0,0,0-.53-.44,4.37,4.37,0,0,0-.68-.29,3.72,3.72,0,0,1-.69-.3,1.6,1.6,0,0,1-.53-.48,1.41,1.41,0,0,1-.21-.82,1.54,1.54,0,0,1,.17-.77A1.38,1.38,0,0,1,64,1.45a1.71,1.71,0,0,1,.59-.24,3,3,0,0,1,.62-.07,3.33,3.33,0,0,1,.5,0,2.91,2.91,0,0,1,.47.11,1.22,1.22,0,0,1,.34.17.27.27,0,0,1,.13.21.43.43,0,0,1-.06.2.2.2,0,0,1-.18.12.32.32,0,0,1-.15-.05L66,1.81a2.21,2.21,0,0,0-.34-.11,2,2,0,0,0-.48-.05,2.24,2.24,0,0,0-.46,0,1.15,1.15,0,0,0-.4.16.82.82,0,0,0-.28.31,1,1,0,0,0-.1.48.85.85,0,0,0,.21.61,1.71,1.71,0,0,0,.53.36,6.35,6.35,0,0,0,.68.27,2.81,2.81,0,0,1,.69.33,1.75,1.75,0,0,1,.53.56,1.81,1.81,0,0,1,.21.94,2.14,2.14,0,0,1-.13.79,1.47,1.47,0,0,1-.37.55,1.49,1.49,0,0,1-.57.32,2.65,2.65,0,0,1-1.46,0,2.42,2.42,0,0,1-.55-.24,1.25,1.25,0,0,1-.35-.3.49.49,0,0,1-.12-.28.35.35,0,0,1,.08-.21.23.23,0,0,1,.18-.11.23.23,0,0,1,.17.11,1.76,1.76,0,0,0,.24.24A1.51,1.51,0,0,0,65,6.94Zm6.37-5.79a.18.18,0,0,1,.16.08.32.32,0,0,1,.05.18.36.36,0,0,1-.05.19.18.18,0,0,1-.16.09H69.89V7.19a.18.18,0,0,1-.09.17.36.36,0,0,1-.19.06.35.35,0,0,1-.2-.06.19.19,0,0,1-.09-.17V1.68H67.89a.18.18,0,0,1-.16-.08.31.31,0,0,1-.06-.18.35.35,0,0,1,.05-.18.18.18,0,0,1,.16-.09ZM72,7.41a.42.42,0,0,1-.22-.06.2.2,0,0,1-.11-.18.14.14,0,0,1,0-.06L73.43,1.3a.25.25,0,0,1,.13-.15.45.45,0,0,1,.21,0,.44.44,0,0,1,.21.05.26.26,0,0,1,.13.15l1.78,5.82a.21.21,0,0,1-.1.23.42.42,0,0,1-.23.07.21.21,0,0,1-.21-.15l-.39-1.32H72.57l-.39,1.32a.16.16,0,0,1-.08.11A.29.29,0,0,1,72,7.41Zm2.84-2L73.76,2l-1,3.45Zm4.83-4.31a.18.18,0,0,1,.16.08.32.32,0,0,1,.05.18.36.36,0,0,1-.05.19.18.18,0,0,1-.16.09H78.2V7.19a.18.18,0,0,1-.09.17.36.36,0,0,1-.19.06.35.35,0,0,1-.2-.06.19.19,0,0,1-.09-.17V1.68H76.2A.18.18,0,0,1,76,1.6.31.31,0,0,1,76,1.42.35.35,0,0,1,76,1.24a.18.18,0,0,1,.16-.09ZM81.53,4h1.35a.18.18,0,0,1,.16.08.3.3,0,0,1,.06.18.29.29,0,0,1,0,.16.19.19,0,0,1-.17.07H81.53V6.89h2.74a.18.18,0,0,1,.16.08.32.32,0,0,1,.06.18.34.34,0,0,1,0,.18.18.18,0,0,1-.17.08h-3A.3.3,0,0,1,81,7.36.19.19,0,0,1,81,7.19V1.37A.18.18,0,0,1,81,1.2a.32.32,0,0,1,.18-.05h3a.18.18,0,0,1,.17.08.32.32,0,0,1,0,.17.33.33,0,0,1-.06.19.18.18,0,0,1-.16.08H81.53ZM63.43,17.69a.42.42,0,0,1-.22-.06.2.2,0,0,1-.11-.17.15.15,0,0,1,0-.06l1.79-5.82a.25.25,0,0,1,.13-.15.45.45,0,0,1,.21,0,.44.44,0,0,1,.21.05.26.26,0,0,1,.13.15l1.78,5.82a.22.22,0,0,1-.1.23.42.42,0,0,1-.23.07.21.21,0,0,1-.21-.15l-.39-1.32H64l-.39,1.32a.16.16,0,0,1-.08.11A.29.29,0,0,1,63.43,17.69Zm2.84-2-1-3.45-1,3.45Zm4-4.31a2.4,2.4,0,0,1,.7.1,1.43,1.43,0,0,1,1,.88,2.31,2.31,0,0,1,.14.84v2.6a2.34,2.34,0,0,1-.14.85,1.43,1.43,0,0,1-1,.88,2.39,2.39,0,0,1-.7.1H68.77a.26.26,0,0,1-.19-.06.2.2,0,0,1-.07-.15V11.64a.19.19,0,0,1,.07-.15.27.27,0,0,1,.19-.06ZM69.08,12v5.22h1.21a1.22,1.22,0,0,0,.9-.32,1.34,1.34,0,0,0,.33-1v-2.6a1.32,1.32,0,0,0-.33-1,1.23,1.23,0,0,0-.9-.32Zm6.8,3.39q-.1.18-.23.18t-.22-.18L74,12.63v4.84a.18.18,0,0,1-.09.17.37.37,0,0,1-.39,0,.19.19,0,0,1-.08-.17V11.7a.24.24,0,0,1,.08-.21.34.34,0,0,1,.2-.06.35.35,0,0,1,.26.12,1.32,1.32,0,0,1,.19.28l1.47,2.84,1.47-2.84a1.28,1.28,0,0,1,.19-.28.34.34,0,0,1,.26-.12.33.33,0,0,1,.2.06.25.25,0,0,1,.08.21v5.76a.19.19,0,0,1-.08.17.37.37,0,0,1-.39,0,.18.18,0,0,1-.09-.17V12.66Zm3.41-3.71a.17.17,0,0,1,.08-.16.43.43,0,0,1,.39,0,.16.16,0,0,1,.09.16v5.83a.18.18,0,0,1-.09.17.37.37,0,0,1-.39,0,.19.19,0,0,1-.08-.17Zm5.32,6.06a.29.29,0,0,1-.21-.1,1,1,0,0,1-.16-.23l-2.38-4.63v4.74a.18.18,0,0,1-.09.17.37.37,0,0,1-.39,0,.19.19,0,0,1-.08-.17V11.64a.18.18,0,0,1,.08-.17.41.41,0,0,1,.2,0,.33.33,0,0,1,.26.12,1.39,1.39,0,0,1,.19.28l2.31,4.56V11.64a.17.17,0,0,1,.09-.16.4.4,0,0,1,.2,0,.41.41,0,0,1,.19,0,.17.17,0,0,1,.09.16v5.83a.18.18,0,0,1-.09.17A.36.36,0,0,1,84.61,17.69Zm1.71-6.06a.17.17,0,0,1,.08-.16.43.43,0,0,1,.39,0,.16.16,0,0,1,.09.16v5.83a.18.18,0,0,1-.09.17.37.37,0,0,1-.39,0,.19.19,0,0,1-.08-.17Zm3.49,5.58a1.38,1.38,0,0,0,.94-.3,1.11,1.11,0,0,0,.34-.89,1.18,1.18,0,0,0-.21-.74,1.61,1.61,0,0,0-.53-.44,4.37,4.37,0,0,0-.68-.29,3.72,3.72,0,0,1-.69-.3,1.6,1.6,0,0,1-.53-.48,1.41,1.41,0,0,1-.21-.82,1.54,1.54,0,0,1,.17-.77,1.38,1.38,0,0,1,.44-.48,1.71,1.71,0,0,1,.59-.24,3,3,0,0,1,.62-.07,3.33,3.33,0,0,1,.5,0,2.91,2.91,0,0,1,.47.11,1.22,1.22,0,0,1,.34.17.27.27,0,0,1,.13.21.43.43,0,0,1-.06.2.2.2,0,0,1-.18.12.32.32,0,0,1-.15-.05l-.23-.11a2.21,2.21,0,0,0-.34-.11,2,2,0,0,0-.48-.05,2.24,2.24,0,0,0-.46,0,1.15,1.15,0,0,0-.4.16.82.82,0,0,0-.28.31,1,1,0,0,0-.1.48.85.85,0,0,0,.21.61,1.71,1.71,0,0,0,.53.36,6.35,6.35,0,0,0,.68.27,2.81,2.81,0,0,1,.69.33,1.75,1.75,0,0,1,.53.56,1.81,1.81,0,0,1,.21.94,2.14,2.14,0,0,1-.13.79,1.46,1.46,0,0,1-.37.55,1.48,1.48,0,0,1-.57.32,2.64,2.64,0,0,1-1.46,0,2.4,2.4,0,0,1-.55-.24,1.23,1.23,0,0,1-.35-.3.49.49,0,0,1-.12-.28.35.35,0,0,1,.08-.21.22.22,0,0,1,.18-.11.23.23,0,0,1,.17.11,1.79,1.79,0,0,0,.24.24,1.51,1.51,0,0,0,1.05.36Zm6.37-5.79a.18.18,0,0,1,.16.08.32.32,0,0,1,.05.18.36.36,0,0,1-.05.19.18.18,0,0,1-.16.09H94.75v5.51a.18.18,0,0,1-.09.17.36.36,0,0,1-.19.06.35.35,0,0,1-.2-.06.19.19,0,0,1-.09-.17V12H92.75a.18.18,0,0,1-.16-.08.31.31,0,0,1-.06-.18.35.35,0,0,1,.05-.18.18.18,0,0,1,.16-.09Zm1.33.21c0-.13.07-.19.21-.21h1.52a3,3,0,0,1,.71.08,1.53,1.53,0,0,1,.59.28,1.37,1.37,0,0,1,.4.52,1.91,1.91,0,0,1,.15.81,2.06,2.06,0,0,1-.1.69,1.48,1.48,0,0,1-.28.49,1.27,1.27,0,0,1-.42.31,2.22,2.22,0,0,1-.53.16l1.32,2.54a.17.17,0,0,1,0,.11.26.26,0,0,1-.1.2.33.33,0,0,1-.22.09.22.22,0,0,1-.18-.1,1.42,1.42,0,0,1-.12-.2l-1.32-2.57H98.07v2.63a.18.18,0,0,1-.09.17.37.37,0,0,1-.39,0,.19.19,0,0,1-.08-.17Zm.56.32v2.4h1.17a1.47,1.47,0,0,0,.93-.28,1.11,1.11,0,0,0,.36-.93,1.09,1.09,0,0,0-.36-.92,1.48,1.48,0,0,0-.93-.27Zm4.3,5.74a.42.42,0,0,1-.22-.06.2.2,0,0,1-.11-.17.15.15,0,0,1,0-.06l1.79-5.82a.25.25,0,0,1,.13-.15.45.45,0,0,1,.21,0,.44.44,0,0,1,.21.05.26.26,0,0,1,.13.15l1.78,5.82a.22.22,0,0,1-.1.23.42.42,0,0,1-.23.07.21.21,0,0,1-.21-.15l-.39-1.32H103l-.39,1.32a.16.16,0,0,1-.08.11A.29.29,0,0,1,102.38,17.69Zm2.84-2-1-3.45-1,3.45Zm4.83-4.31a.18.18,0,0,1,.16.08.32.32,0,0,1,.05.18.36.36,0,0,1-.05.19.18.18,0,0,1-.16.09h-1.43v5.51a.18.18,0,0,1-.09.17.36.36,0,0,1-.19.06.35.35,0,0,1-.2-.06.19.19,0,0,1-.09-.17V12h-1.44a.18.18,0,0,1-.16-.08.31.31,0,0,1-.06-.18.35.35,0,0,1,.05-.18.18.18,0,0,1,.16-.09Zm1.33.21a.17.17,0,0,1,.08-.16.43.43,0,0,1,.39,0,.16.16,0,0,1,.09.16v5.83a.18.18,0,0,1-.09.17.37.37,0,0,1-.39,0,.19.19,0,0,1-.08-.17Zm1.71.09a.14.14,0,0,1,0-.06.2.2,0,0,1,.11-.18.42.42,0,0,1,.22-.06.29.29,0,0,1,.14,0,.16.16,0,0,1,.08.11l1.58,5.26,1.58-5.26a.21.21,0,0,1,.21-.15.42.42,0,0,1,.23.07.21.21,0,0,1,.11.18c0,.05-1.79,5.86-1.79,5.86a.26.26,0,0,1-.13.15.45.45,0,0,1-.21.05.45.45,0,0,1-.21,0,.25.25,0,0,1-.13-.16Zm6,2.58h1.35a.18.18,0,0,1,.16.08.3.3,0,0,1,.06.18.29.29,0,0,1,0,.16.19.19,0,0,1-.17.07H119v2.37h2.74a.18.18,0,0,1,.16.08.32.32,0,0,1,.06.18.35.35,0,0,1,0,.18.18.18,0,0,1-.17.08h-3a.3.3,0,0,1-.18-.06.19.19,0,0,1-.08-.17V11.64a.18.18,0,0,1,.08-.16.32.32,0,0,1,.18-.05h3a.18.18,0,0,1,.17.08.32.32,0,0,1,0,.17.33.33,0,0,1-.06.19.18.18,0,0,1-.16.08H119ZM66.7,21.71a.18.18,0,0,1,.16.08.33.33,0,0,1,.05.18.36.36,0,0,1-.05.19.18.18,0,0,1-.16.09H65.27v5.51a.18.18,0,0,1-.09.17A.36.36,0,0,1,65,28a.35.35,0,0,1-.2-.06.19.19,0,0,1-.09-.17V22.24H63.27a.18.18,0,0,1-.16-.08.31.31,0,0,1-.06-.18.35.35,0,0,1,.05-.18.18.18,0,0,1,.16-.08Zm1.33.21c0-.12.07-.19.21-.21h1.52a3,3,0,0,1,.71.08,1.54,1.54,0,0,1,.59.28,1.38,1.38,0,0,1,.4.52,1.91,1.91,0,0,1,.15.81,2.06,2.06,0,0,1-.1.69,1.48,1.48,0,0,1-.28.49,1.27,1.27,0,0,1-.42.31,2.22,2.22,0,0,1-.53.16l1.32,2.54a.17.17,0,0,1,0,.11.26.26,0,0,1-.1.2.33.33,0,0,1-.22.09.22.22,0,0,1-.18-.1,1.42,1.42,0,0,1-.12-.2l-1.32-2.57H68.6v2.63a.18.18,0,0,1-.09.17.37.37,0,0,1-.39,0,.19.19,0,0,1-.08-.17Zm.56.32v2.4h1.17a1.47,1.47,0,0,0,.93-.28,1.11,1.11,0,0,0,.36-.93,1.09,1.09,0,0,0-.36-.92,1.48,1.48,0,0,0-.93-.27Zm4.23-.32a.17.17,0,0,1,.08-.16.43.43,0,0,1,.39,0,.16.16,0,0,1,.09.16v5.83a.18.18,0,0,1-.09.17.37.37,0,0,1-.39,0,.19.19,0,0,1-.08-.17Zm2,0a.18.18,0,0,1,.08-.16.32.32,0,0,1,.18-.05h1.4a3.91,3.91,0,0,1,.68.06,1.42,1.42,0,0,1,.56.22,1.12,1.12,0,0,1,.38.45,1.69,1.69,0,0,1,.14.74,1.84,1.84,0,0,1-.2.9,1.13,1.13,0,0,1-.53.51,1.58,1.58,0,0,1,.36.2,1.18,1.18,0,0,1,.28.29,1.36,1.36,0,0,1,.18.42,2.3,2.3,0,0,1,.06.57v.15a2.26,2.26,0,0,1-.13.83,1.34,1.34,0,0,1-.89.84,2.29,2.29,0,0,1-.67.09H75.07a.26.26,0,0,1-.19-.06.2.2,0,0,1-.07-.15Zm.56,2.41H76.5a1.34,1.34,0,0,0,.88-.24,1.09,1.09,0,0,0,.29-.86,1.13,1.13,0,0,0-.09-.48.78.78,0,0,0-.25-.31.93.93,0,0,0-.38-.16,2.46,2.46,0,0,0-.48,0H75.37Zm1.24,3.12a1.23,1.23,0,0,0,.88-.3,1.28,1.28,0,0,0,.32-1V26a1.19,1.19,0,0,0-.32-.94,1.31,1.31,0,0,0-.88-.27H75.37v2.63Zm6-5.53a.16.16,0,0,1,.09-.16.4.4,0,0,1,.2,0,.41.41,0,0,1,.19,0,.16.16,0,0,1,.09.16v4.27a2.26,2.26,0,0,1-.14.85,1.51,1.51,0,0,1-.38.56,1.48,1.48,0,0,1-.57.32,2.42,2.42,0,0,1-.7.1,2.46,2.46,0,0,1-.71-.1,1.43,1.43,0,0,1-1-.88,2.32,2.32,0,0,1-.14-.85V21.91a.16.16,0,0,1,.09-.16.42.42,0,0,1,.19,0,.4.4,0,0,1,.2,0,.16.16,0,0,1,.09.16v4.27a1.34,1.34,0,0,0,.33,1,1.44,1.44,0,0,0,1.82,0,1.34,1.34,0,0,0,.33-1ZM87.95,28a.29.29,0,0,1-.21-.1,1,1,0,0,1-.16-.23L85.19,23v4.74a.18.18,0,0,1-.09.17.37.37,0,0,1-.39,0,.19.19,0,0,1-.08-.17V21.92a.17.17,0,0,1,.08-.17.41.41,0,0,1,.2,0,.33.33,0,0,1,.26.12,1.39,1.39,0,0,1,.19.28l2.31,4.56V21.91a.16.16,0,0,1,.09-.16.4.4,0,0,1,.2,0,.41.41,0,0,1,.19,0,.16.16,0,0,1,.09.16v5.83a.18.18,0,0,1-.09.17A.36.36,0,0,1,87.95,28Zm1.75,0a.42.42,0,0,1-.22-.06.2.2,0,0,1-.11-.17.15.15,0,0,1,0-.06l1.79-5.82a.25.25,0,0,1,.13-.15.45.45,0,0,1,.21,0,.44.44,0,0,1,.21.05.26.26,0,0,1,.13.15l1.78,5.82a.22.22,0,0,1-.1.23.42.42,0,0,1-.23.07.21.21,0,0,1-.21-.15l-.39-1.32H90.31l-.39,1.32a.16.16,0,0,1-.08.11A.29.29,0,0,1,89.7,28Zm2.84-2-1-3.45-1,3.45ZM95,28a.3.3,0,0,1-.18-.06.19.19,0,0,1-.08-.17V21.91a.17.17,0,0,1,.08-.16.43.43,0,0,1,.39,0,.16.16,0,0,1,.09.16v5.53h2.44a.15.15,0,0,1,.14.08.34.34,0,0,1,0,.17.36.36,0,0,1,0,.18.15.15,0,0,1-.14.08ZM43.48,3.7,43.33,30H40.9l-4-6.84L37.06,3.7H31.44L29.81.91H48.2L49.83,3.7ZM38.91,30,21.45,0,14.1,13.65l1,1.65,3.54-6.4L30.94,30ZM5.67,3.7h7.94L15.23.91H5.32a5.31,5.31,0,0,0-4.59,8L11.39,27.21H2.75L1.12,30H13.79a4.13,4.13,0,0,0,3.57-6.21Z"/></svg>