<?xml version="1.0" encoding="utf-8"?>
<!-- Generator: Adobe Illustrator 21.1.0, SVG Export Plug-In . SVG Version: 6.00 Build 0)  -->
<svg version="1.1" id="Layer_1" xmlns="http://www.w3.org/2000/svg" xmlns:xlink="http://www.w3.org/1999/xlink" x="0px" y="0px"
	 viewBox="0 0 49.9 30" style="enable-background:new 0 0 49.9 30;" xml:space="preserve">
<style type="text/css">
	.st0{fill:#0A3249;}
</style>
<title>SAT LOGO</title>
<path class="st0" d="M43.5,3.7L43.3,30h-2.4l-4-6.8l0.2-19.5h-5.6l-1.6-2.8h18.4l1.6,2.8C49.9,3.7,43.5,3.7,43.5,3.7z M38.9,30
	L21.5,0l-7.4,13.6l1,1.6l3.5-6.4L30.9,30H38.9z M5.7,3.7h7.9l1.6-2.8H5.3C2.4,0.9,0,3.3,0,6.2c0,0.9,0.3,1.9,0.7,2.7l10.7,18.3H2.8
	L1.1,30h12.7c2.3,0,4.1-1.8,4.1-4.1c0-0.7-0.2-1.5-0.6-2.1L5.7,3.7z"/>
</svg>
